<svg xmlns="http://www.w3.org/2000/svg" xml:space="preserve" viewBox="0 0 131 135"><path d="M96.738 71.972a32.947 32.947 0 0 1-4.5 29.94l-19.15-12.45a2.652 2.652 0 0 1-1-1 2.76 2.76 0 0 1-.17-1.25c.1-3.88.193-7.76.28-11.64a108.157 108.157 0 0 0 23.71-3.89l.83.29Z" style="fill:#f2a16e;fill-rule:nonzero"/><path d="M90.188 102.462a86.763 86.763 0 0 0 11.95 1.19l17.23.92c3.39.18 7.15.52 9.47 3 3.1 3.3 1.95 9-1.23 12.21-3.18 3.21-7.77 4.55-12.15 5.68a116.295 116.295 0 0 1-20.16 3.75c-12.63 1-25.89-1.77-35.91-9.52 5.79-3.52 9.15-10.15 15-13.63 3.56-2.14 7.75-2.91 11.84-3.64a7.507 7.507 0 0 1 3.88 0l.08.04Z" style="fill:#5450a9;fill-rule:nonzero"/><path d="M86.878 119.922a9.652 9.652 0 0 1-6.18-2.27 9.71 9.71 0 0 0-2.11-1.63c-1.6-.73-3.52 0-4.89 1.07-1.37 1.07-2.4 2.58-3.72 3.74-5.55 4.9-15.28 3.55-19.69 9.5-1 1.37-1.35 3.77.23 4.4 1.37.55 2.67-.79 3.9-1.61a11.891 11.891 0 0 1 5.5-1.45 636.218 636.218 0 0 1 30.6-2.16 13.918 13.918 0 0 0-1.38-10l-2.26.41Zm-64.33-46.14c-1-1.72.59-3.82 2.3-4.81 1.71-.99 3.81-1.71 4.69-3.49.79-1.61.25-3.59-.69-5.12-.94-1.53-2.26-2.81-3.18-4.36-3.46-5.76-.81-13.62-3.94-19.56l-1.49.76c-.29-1.2-.58-2.4-.88-3.6a1.7 1.7 0 0 0-.52-1c-.95-.73-2 .85-2.14 2a442.555 442.555 0 0 0-3.86 37.3c-.058.338-.016.686.12 1 .229.326.56.569.94.69 2.69 1.17 5.92 2.31 8.4.74l.25-.55Z" style="fill:#f2a16e;fill-rule:nonzero"/><path d="M71.738 83.992a112.12 112.12 0 0 0 25.7 13.59c-6.7 6.39-10 16-17.69 21.23a40.741 40.741 0 0 1-7.44 3.66c-7.55 3.1-15.15 6.22-23.12 8a110.803 110.803 0 0 1-22.12 2.36c-6.46.15-13 0-19.21-1.84-2.81-.85-2.47-1.14-4.42-3.34-3.21-3.62-3.47-9.08-2.13-13.73 1.34-4.65 10.43-32.8 10.88-42.81l9.54.88a1.011 1.011 0 0 1 1.12 1.19l.42 22.68c.09 4.87.08 10.1-2.69 14.11l23.43-5.92a6.352 6.352 0 0 0 2.17-.84 7.31 7.31 0 0 0 1.6-1.86 23.427 23.427 0 0 1 12.17-8.76c2.49-.76 5.13-1.1 7.47-2.26 2.34-1.16 4.39-3.43 4.25-6l.07-.34Z" style="fill:#6775c0;fill-rule:nonzero"/><path d="M64.788 37.012c0 .1-7-6.18-7-6.18s-.74-7.8-2.41-8.3a2.753 2.753 0 0 0-1.6.13c-1.9.59-5.64 1.92-5.64 1.92l-5.11-2.13-2.017 4.15s-1.493 1.62-2.833 2.32a24.73 24.73 0 0 0-6.86 5.25 8.665 8.665 0 0 0-2.06 3.25c-.72 2.43.36 5 1.43 7.27 1.92 4.14 4.13 8.58 8.23 10.57 3.32 1.61 7.33 1.24 10.75-.13s6.39-3.66 9.31-5.92a19 19 0 0 1 3.28 5.29 234.987 234.987 0 0 1 4.3-17.06l-1.77-.43Z" style="fill:#f2a16e;fill-rule:nonzero"/><path d="M60.268 47.592a15.304 15.304 0 0 0 1.18 10.05c1.38 2.81 3.66 5.26 4.21 8.35.16.83.17 1.69.34 2.52.232.96.567 1.892 1 2.78l4.4 10.21c.132.402.387.752.73 1 .412.183.874.222 1.31.11a53.145 53.145 0 0 0 23-9.23c.45-.267.828-.642 1.1-1.09a3.819 3.819 0 0 0 .16-2.15c-.34-3.6.58-7.3-.27-10.81-1.18-4.8-5.38-8.2-9.57-10.83-4.19-2.63-8.75-5-11.56-9.09a54.907 54.907 0 0 0-16.84 9.61l.81-1.43Z" style="fill:#dc4345;fill-rule:nonzero"/><path d="M84.378 61.802a10.938 10.938 0 0 0 1-11.51 18.866 18.866 0 0 0-1.41-2.29c-2.37-3.34-5.46-6.31-6.73-10.2-.9-2.76-.8-5.72-.9-8.62a59.311 59.311 0 0 0-6-24c-.84-1.7-1.85-3.46-3.52-4.37-2.55-1.39-5.69-.36-8.41.69l-10.28 4a79.489 79.489 0 0 0-10.46 4.64c-2.59 1.46-5 3.22-7.72 4.48-2 .95-4.21 1.6-6.21 2.62-5.17 2.62-14.29 11.59-12.3 12.06a4.129 4.129 0 0 0 2.69-1 5.78 5.78 0 0 0-3.47 4.08.768.768 0 0 0 .75.914c.141 0 .28-.04.4-.114a7.174 7.174 0 0 0 1.43-1.15 4.587 4.587 0 0 0-2.56 3.14c-.108.419.051.864.4 1.12.49.33 1 0 1.45-.29l2.93-2.1c-.94.67-1.94 1.41-2.06 2.65a1.5 1.5 0 0 0 1 1.59 2.104 2.104 0 0 0 1.9-.72c2.86-2.42 6.63-5.27 8.88-8.26-1.38 1.55-3.53 3.48-4.11 5.46a.787.787 0 0 0 .752.986.781.781 0 0 0 .468-.156c3.71-2.95 7.37-6.05 9.89-10a17.064 17.064 0 0 1 2.36-3.38 12.022 12.022 0 0 1 2.8-1.87 104.073 104.073 0 0 1 19.5-7.92 2.17 2.17 0 0 1 1.54-.06c.55.391.89 1.016.92 1.69 1.37 7.347 1.95 14.82 1.73 22.29-.13 4.21-.49 8.55.86 12.54 1.26 3.74 3.91 6.84 6.72 9.61a21.492 21.492 0 0 0 6.94 5 8.933 8.933 0 0 0 8.23-.57l.6-.98Z" style="fill:#f2a16e;fill-rule:nonzero"/><path d="M35.298 31.032c-2.347 2.687-2.259 6.767.2 9.35a3.376 3.376 0 0 0 1.7 1c1.52.26 3-1.09 4.52-.7 1.93.51 2.58 3.57 4.57 3.55 1.27 0 2.11-1.34 3.3-1.78 2.4-.88 4.59 2.05 7.14 2.18.444-.022.889.022 1.32.13.8.3 1.09 1.26 1.28 2.09.32 1.38.55 3.07-.52 4a8.192 8.192 0 0 1-1.52.82c-1.28.69-2.06 2-3 3.12a12.506 12.506 0 0 1-9.4 4.4c-3 0-5.88-1.07-8.68-2.13-2.29-.87-4.79-1.92-5.85-4.12-1.06-2.2-.36-4.84-.89-7.22s-2.19-4.35-2.21-6.72a6.696 6.696 0 0 1 2.61-5 19.685 19.685 0 0 1 5.08-2.79l.35-.18Z" style="fill:#101211;fill-rule:nonzero"/><path d="M40.738 55.252c-2 .667-3.76 1.909-5.06 3.57a5.358 5.358 0 0 0-.32 5.9c1.28 1.86 4 2.6 4.69 4.76.69 2.16-1.18 4.25-2.81 5.86-3 2.95-5.86 6.62-5.68 10.81.392 4.547 4.243 8.081 8.807 8.081.399 0 .797-.027 1.193-.081-2.11-.41-3.26-3-2.78-5.06a8.592 8.592 0 0 1 3.94-4.9c1.79-1.18 3.79-2.06 5.48-3.38a10.942 10.942 0 0 0 4.37-8.36 8.346 8.346 0 0 0-5-7.72c-1.15-.45-2.39-.6-3.55-1a9.26 9.26 0 0 1-6.15-8.24l2.87-.24Z" style="fill:#101211;fill-rule:nonzero"/><path d="M13.588 36.462c2-2.38 3.973-4.763 5.92-7.15.28-.33-.2-.81-.48-.48-2 2.387-3.974 4.77-5.92 7.15-.27.34.21.82.48.48Zm-1.85-2.54c2.2-2.48 4.49-4.89 6.86-7.2.32-.3-.16-.78-.48-.48-2.37 2.31-4.66 4.72-6.86 7.2-.28.33.19.81.48.48Zm.62-3.62a36.66 36.66 0 0 1 5.2-4.91.342.342 0 0 0 0-.48.354.354 0 0 0-.48 0 36.66 36.66 0 0 0-5.2 4.91c-.28.33.2.81.48.48Zm1.25 6.92c-.5.54.08 1.16.64 1.31a3.085 3.085 0 0 0 2.05-.41 14.263 14.263 0 0 0 3.58-3.23l2.23-2.39-.53-.41a7.184 7.184 0 0 0-.94 3.09.35.35 0 0 0 .25.33l.78.29c.41.15.58-.51.18-.66l-.78-.28.25.32c.073-.967.36-1.907.84-2.75a.341.341 0 0 0-.53-.41c-1.31 1.4-2.58 2.86-3.95 4.2a6.894 6.894 0 0 1-1.87 1.39 3.3 3.3 0 0 1-1.07.31.75.75 0 0 1-.47-.07.406.406 0 0 1-.15-.11c-.06-.06 0 0 0 0 .3-.32-.18-.8-.48-.48l-.03-.04Zm17.96-20.05a11.504 11.504 0 0 1 1.24 3.36.341.341 0 0 0 .42.24.35.35 0 0 0 .23-.42 12.116 12.116 0 0 0-1.31-3.52.343.343 0 0 0-.264-.126.344.344 0 0 0-.316.466Zm-11.13 19.98a3.778 3.778 0 0 0-1 3.36.332.332 0 0 0 .41.23.332.332 0 0 0 .24-.41c-.2-.974.096-1.987.79-2.7.31-.32-.17-.8-.48-.48h.04Zm-1.7 22.57a3.67 3.67 0 0 0 1.18 4.82c.37.23.71-.35.34-.58a3.022 3.022 0 0 1-.93-3.9c.22-.37-.37-.71-.59-.34Zm36.12 73.34 1-1.73a.342.342 0 0 0-.12-.41.344.344 0 0 0-.46.12l-1 1.73a.343.343 0 0 0 .295.511.339.339 0 0 0 .295-.171l-.01-.05Zm28.2-10.63a3.43 3.43 0 0 0 1.4 3.33c.16.091.365.037.46-.12a.354.354 0 0 0-.12-.47 2.686 2.686 0 0 1-1.08-2.56.344.344 0 0 0-.33-.432.344.344 0 0 0-.33.252Zm-22.56-92.36c0 3.734.016 7.464.05 11.19v2.82c0 .91 0 1.83.07 2.73.13 1.564.619 3.077 1.43 4.42a21.654 21.654 0 0 0 3.28 4.06.337.337 0 0 0 .542-.274.338.338 0 0 0-.062-.196c-2.12-2.17-4.17-4.66-4.49-7.79-.09-.87-.08-1.74-.09-2.61v-14.35a.342.342 0 0 0-.335-.282.344.344 0 0 0-.335.282h-.06Zm-1.96-17.21 4.06-4.79c.28-.34-.19-.82-.48-.48l-4.06 4.79c-.28.33.2.81.48.48Zm-9.23 12.11c.248.939.312 1.917.19 2.88 0 .18.17.34.34.34a.342.342 0 0 0 .33-.34 7.897 7.897 0 0 0-.21-3.06.34.34 0 0 0-.65.18Z" style="fill:#5b341a;fill-rule:nonzero"/><path d="M42.108 29.732c.59.126 1.071.557 1.26 1.13.117.285.162.594.13.9a1.498 1.498 0 0 1-.3.78.352.352 0 0 0 0 .48.34.34 0 0 0 .48 0 2.383 2.383 0 0 0 .35-2.34 2.42 2.42 0 0 0-1.74-1.6.343.343 0 0 0-.472.314.343.343 0 0 0 .292.336Zm-4.37 1.82a1.741 1.741 0 0 1 .47-1.2.927.927 0 0 1 1.19-.09c.5.44.21 1.23 0 1.86a4.178 4.178 0 0 0 1.09 4 4.54 4.54 0 0 1-2.94-5.08l.19.51Z" style="fill:#101211;fill-rule:nonzero"/><path d="M45.438 41.862a3.733 3.733 0 0 0-1.947 3.27c0 .754.229 1.49.657 2.11a3.362 3.362 0 0 0 5.33-.38c.94-1.76 0-3.89-.93-5.64l-3.11.64Z" style="fill:#f2a16e;fill-rule:nonzero"/><path d="M76.848 44.462a8.126 8.126 0 0 0 2.84 5.08c.34.27.82-.21.48-.48a7.525 7.525 0 0 1-2.66-4.78.343.343 0 0 0-.42-.23.353.353 0 0 0-.24.41Z" style="fill:#5b341a;fill-rule:nonzero"/><path d="M88.918 119.422a48.627 48.627 0 0 1 9.12-6.83 49.335 49.335 0 0 1 10.46-4.54 46.754 46.754 0 0 1 6.29-1.45c.43-.07.24-.73-.18-.66a49.01 49.01 0 0 0-11.13 3.2 49.595 49.595 0 0 0-10 5.62 50.405 50.405 0 0 0-5 4.18c-.32.3.16.78.48.48h-.04Zm-18.18-30.73c2.773 2.12 5.6 4.164 8.48 6.13a49.915 49.915 0 0 0 8.33 4.85 20.488 20.488 0 0 0 5.08 1.46.343.343 0 0 0 .433-.328v-.004a.33.33 0 0 0-.243-.318 24.103 24.103 0 0 1-8.73-3.33c-2.86-1.68-5.59-3.61-8.28-5.54a183.187 183.187 0 0 1-4.73-3.5c-.34-.27-.68.32-.34.58Zm-23.85 15.16a33.459 33.459 0 0 1 1.94 7.42c.06.43.71.24.65-.18a32.88 32.88 0 0 0-1.94-7.42c-.16-.4-.81-.23-.65.18Zm-26.46 5.91c-1.374 2.667-2.74 5.314-4.1 7.94-.2.38.39.73.59.34 1.333-2.666 2.7-5.313 4.1-7.94.2-.39-.39-.73-.59-.34Z" style="fill:#18404f;fill-rule:nonzero"/><path d="M72.308 63.732a14.723 14.723 0 0 0 12.56 1.44c1.164-.4 2.27-.951 3.29-1.64.36-.25 0-.84-.34-.59a14.014 14.014 0 0 1-12 1.7 12.84 12.84 0 0 1-3.21-1.5c-.36-.24-.71.35-.34.59h.04Z" style="fill:#a32b31;fill-rule:nonzero"/></svg>