<?xml version="1.0" encoding="UTF-8" standalone="no"?><!DOCTYPE svg PUBLIC "-//W3C//DTD SVG 1.1//EN" "http://www.w3.org/Graphics/SVG/1.1/DTD/svg11.dtd"><svg width="100%" height="100%" viewBox="0 0 546 563" version="1.1" xmlns="http://www.w3.org/2000/svg" xmlns:xlink="http://www.w3.org/1999/xlink" xml:space="preserve" xmlns:serif="http://www.serif.com/" style="fill-rule:evenodd;clip-rule:evenodd;stroke-linejoin:round;stroke-miterlimit:2;"><path d="M403.075,299.883c14.346,42.127 7.345,88.702 -18.75,124.75l-79.792,-51.875c-1.74,-0.986 -3.18,-2.426 -4.166,-4.166c-0.635,-1.658 -0.878,-3.441 -0.709,-5.209c0.417,-16.166 0.804,-32.333 1.167,-48.5c33.43,-1.717 66.565,-7.153 98.792,-16.208l3.458,1.208Z" style="fill:#f2a16e;fill-rule:nonzero;"/><path d="M375.783,426.925c16.463,2.801 33.1,4.458 49.792,4.958l71.792,3.834c14.125,0.75 29.791,2.166 39.458,12.5c12.917,13.75 8.125,37.5 -5.125,50.875c-13.25,13.375 -32.375,18.958 -50.625,23.666c-27.485,7.672 -55.595,12.901 -84,15.625c-52.625,4.167 -107.875,-7.375 -149.625,-39.666c24.125,-14.667 38.125,-42.292 62.5,-56.792c14.833,-8.917 32.292,-12.125 49.333,-15.167c5.296,-1.416 10.872,-1.416 16.167,0l0.333,0.167Z" style="fill:#195790;fill-rule:nonzero;"/><path d="M361.992,499.675c-9.425,-0.037 -18.542,-3.387 -25.75,-9.458c-2.605,-2.658 -5.563,-4.943 -8.792,-6.792c-6.667,-3.042 -14.667,0 -20.375,4.458c-5.708,4.459 -10,10.75 -15.5,15.584c-23.125,20.416 -63.667,14.791 -82.042,39.583c-4.166,5.708 -5.625,15.708 0.959,18.333c5.708,2.292 11.125,-3.291 16.25,-6.708c7.037,-3.838 14.902,-5.911 22.916,-6.042c42.422,-4.024 84.934,-7.025 127.5,-9c3.364,-14.114 1.312,-28.99 -5.75,-41.666l-9.416,1.708Zm-268.042,-192.25c-4.167,-7.167 2.458,-15.917 9.583,-20.042c7.125,-4.125 15.875,-7.125 19.542,-14.541c3.292,-6.709 1.042,-14.959 -2.875,-21.334c-3.917,-6.375 -9.417,-11.708 -13.25,-18.166c-14.417,-24 -3.375,-56.75 -16.417,-81.5l-6.208,3.166c-1.208,-5 -2.417,-10 -3.667,-15c-0.227,-1.594 -0.992,-3.064 -2.166,-4.166c-3.959,-3.042 -8.334,3.541 -8.917,8.333c-7.555,51.555 -12.92,103.407 -16.083,155.417c-0.242,1.408 -0.067,2.858 0.5,4.166c0.954,1.359 2.333,2.371 3.916,2.875c11.209,4.875 24.667,9.625 35,3.084l1.042,-2.292Z" style="fill:#f2a16e;fill-rule:nonzero;"/><path d="M298.908,349.967c33.086,23.442 69.083,42.477 107.084,56.625c-27.917,26.625 -41.667,66.666 -73.709,88.458c-9.787,6.124 -20.175,11.234 -31,15.25c-31.458,12.917 -63.125,25.917 -96.333,33.333c-30.315,6.362 -61.192,9.656 -92.167,9.834c-26.916,0.625 -54.166,-0 -80.041,-7.667c-11.709,-3.542 -10.292,-4.75 -18.417,-13.917c-13.375,-15.083 -14.458,-37.833 -8.875,-57.208c5.583,-19.375 43.458,-136.667 45.333,-178.375l39.75,3.667c0.175,-0.022 0.351,-0.033 0.527,-0.033c2.311,-0 4.213,1.901 4.213,4.212c-0,0.261 -0.025,0.522 -0.073,0.779l1.75,94.5c0.375,20.292 0.333,42.083 -11.208,58.792l97.625,-24.667c3.203,-0.6 6.269,-1.787 9.041,-3.5c2.643,-2.189 4.897,-4.81 6.667,-7.75c12.445,-17.391 30.267,-30.219 50.708,-36.5c10.375,-3.167 21.375,-4.583 31.125,-9.417c9.75,-4.833 18.292,-14.291 17.709,-25l0.291,-1.416Z" style="fill:#276da2;fill-rule:nonzero;"/><path d="M269.95,154.217c0,0.416 -29.167,-25.75 -29.167,-25.75c0,-0 -3.083,-32.5 -10.041,-34.584c-2.227,-0.485 -4.548,-0.297 -6.667,0.542c-7.917,2.458 -23.5,8 -23.5,8l-21.292,-8.875l-8.404,17.292c0,-0 -6.221,6.75 -11.804,9.666c-10.737,5.558 -20.413,12.963 -28.583,21.875c-3.84,3.814 -6.774,8.442 -8.584,13.542c-3,10.125 1.5,20.833 5.959,30.292c8,17.25 17.208,35.75 34.291,44.041c13.834,6.709 30.542,5.167 44.792,-0.541c14.25,-5.709 26.625,-15.25 38.792,-24.667c5.736,6.546 10.353,13.993 13.666,22.042c5.083,-23.91 11.06,-47.621 17.917,-71.084l-7.375,-1.791Z" style="fill:#f2a16e;fill-rule:nonzero;"/><path d="M251.117,198.3c-3.156,14.109 -1.422,28.881 4.916,41.875c5.75,11.708 15.25,21.917 17.542,34.792c0.667,3.458 0.708,7.041 1.417,10.5c0.966,4 2.362,7.883 4.166,11.583l18.334,42.542c0.55,1.675 1.612,3.133 3.041,4.166c1.717,0.763 3.642,0.925 5.459,0.459c34.527,-5.088 67.367,-18.267 95.833,-38.459c1.875,-1.112 3.45,-2.675 4.583,-4.541c1.078,-2.86 1.31,-5.971 0.667,-8.959c-1.417,-15 2.417,-30.416 -1.125,-45.041c-4.917,-20 -22.417,-34.167 -39.875,-45.125c-17.458,-10.959 -36.458,-20.834 -48.167,-37.875c-25.578,9.079 -49.338,22.638 -70.166,40.041l3.375,-5.958Z" style="fill:#dc4345;fill-rule:nonzero;"/><path d="M351.575,257.508c10.39,-13.866 12.01,-32.507 4.167,-47.958c-1.729,-3.316 -3.693,-6.505 -5.875,-9.542c-9.875,-13.916 -22.75,-26.291 -28.042,-42.5c-3.75,-11.5 -3.333,-23.833 -3.75,-35.916c-1.212,-34.719 -9.731,-68.796 -25,-100c-3.5,-7.084 -7.708,-14.417 -14.667,-18.209c-10.625,-5.791 -23.708,-1.5 -35.041,2.875l-42.834,16.667c-14.973,5.389 -29.539,11.85 -43.583,19.333c-10.792,6.084 -20.833,13.417 -32.167,18.667c-8.333,3.958 -17.541,6.667 -25.875,10.917c-21.541,10.916 -59.541,48.291 -51.25,50.25c4.113,-0.004 8.092,-1.483 11.209,-4.167c-7.306,2.954 -12.716,9.314 -14.459,17c-0.038,0.2 -0.058,0.404 -0.058,0.608c-0,1.75 1.434,3.191 3.183,3.2c0.588,0 1.167,-0.166 1.667,-0.475c2.183,-1.335 4.186,-2.946 5.958,-4.791c-5.389,2.467 -9.335,7.307 -10.666,13.083c-0.45,1.746 0.212,3.6 1.666,4.667c2.042,1.375 4.167,-0 6.042,-1.209l12.208,-8.75c-3.916,2.792 -8.083,5.875 -8.583,11.042c-0.336,2.902 1.406,5.671 4.167,6.625c2.975,0.424 5.969,-0.71 7.916,-3c11.917,-10.083 27.625,-21.958 37,-34.417c-5.75,6.459 -14.708,14.5 -17.125,22.75c-0.07,0.271 -0.106,0.55 -0.106,0.83c-0,1.784 1.456,3.257 3.24,3.279c0.703,-0.001 1.387,-0.229 1.95,-0.65c15.458,-12.292 30.708,-25.209 41.208,-41.667c2.697,-5.075 5.998,-9.804 9.833,-14.083c3.504,-3.132 7.432,-5.755 11.667,-7.792c25.899,-13.717 53.121,-24.774 81.25,-33c2.036,-0.865 4.32,-0.954 6.417,-0.25c2.291,1.629 3.708,4.233 3.833,7.042c5.708,30.612 8.125,61.75 7.208,92.875c-0.541,17.541 -2.041,35.625 3.584,52.25c5.25,15.583 16.291,28.5 28,40.041c8.145,8.812 17.979,15.897 28.916,20.834c11.124,4.845 23.942,3.958 34.292,-2.375l2.5,-4.084Z" style="fill:#f2a16e;fill-rule:nonzero;"/><path d="M147.075,129.3c-9.779,11.196 -9.412,28.196 0.833,38.958c1.894,2.063 4.361,3.514 7.084,4.167c6.333,1.083 12.5,-4.542 18.833,-2.917c8.042,2.125 10.75,14.875 19.042,14.792c5.291,-0 8.791,-5.583 13.75,-7.417c10,-3.666 19.125,8.542 29.75,9.084c1.85,-0.092 3.704,0.091 5.5,0.541c3.333,1.25 4.541,5.25 5.333,8.709c1.333,5.75 2.292,12.791 -2.167,16.666c-1.984,1.359 -4.107,2.504 -6.333,3.417c-5.333,2.875 -8.583,8.333 -12.5,13c-9.778,11.49 -24.08,18.184 -39.167,18.333c-12.5,0 -24.5,-4.458 -36.166,-8.875c-9.542,-3.625 -19.959,-8 -24.375,-17.166c-4.417,-9.167 -1.5,-20.167 -3.709,-30.084c-2.208,-9.916 -9.125,-18.125 -9.208,-28c0.381,-8.202 4.363,-15.831 10.875,-20.833c6.443,-4.898 13.576,-8.816 21.167,-11.625l1.458,-0.75Z" style="fill:#101211;fill-rule:nonzero;"/><path d="M169.742,230.217c-8.334,2.779 -15.667,7.954 -21.084,14.875c-5.32,7.172 -5.847,16.877 -1.333,24.583c5.333,7.75 16.667,10.833 19.542,19.833c2.875,9 -4.917,17.709 -11.709,24.417c-12.5,12.292 -24.416,27.583 -23.666,45.042c1.633,18.945 17.679,33.671 36.696,33.671c1.662,-0 3.32,-0.113 4.97,-0.338c-8.791,-1.708 -13.583,-12.5 -11.583,-21.083c2.695,-8.633 8.564,-15.931 16.417,-20.417c7.458,-4.917 15.791,-8.583 22.833,-14.083c11.013,-8.259 17.713,-21.077 18.208,-34.834c0.123,-13.899 -8.099,-26.594 -20.833,-32.166c-4.792,-1.875 -9.958,-2.5 -14.792,-4.167c-14.665,-5.205 -24.807,-18.794 -25.625,-34.333l11.959,-1Z" style="fill:#101211;fill-rule:nonzero;"/><path d="M56.617,151.925c8.333,-9.917 16.554,-19.846 24.666,-29.792c1.167,-1.375 -0.833,-3.375 -2,-2c-8.333,9.946 -16.558,19.875 -24.666,29.792c-1.125,1.417 0.875,3.417 2,2Zm-7.709,-10.583c9.167,-10.334 18.709,-20.375 28.584,-30c1.333,-1.25 -0.667,-3.25 -2,-2c-9.875,9.625 -19.417,19.666 -28.584,30c-1.166,1.375 0.792,3.375 2,2Zm2.584,-15.084c6.538,-7.509 13.795,-14.361 21.666,-20.458c0.543,-0.551 0.543,-1.449 0,-2c-0.562,-0.518 -1.438,-0.518 -2,0c-7.871,6.097 -15.128,12.949 -21.666,20.458c-1.167,1.375 0.833,3.375 2,2Zm5.208,28.834c-2.083,2.25 0.333,4.833 2.667,5.458c2.958,0.442 5.98,-0.162 8.541,-1.708c5.7,-3.607 10.745,-8.159 14.917,-13.459l9.292,-9.958l-2.209,-1.708c-2.265,3.938 -3.605,8.342 -3.916,12.875c0.01,0.635 0.433,1.193 1.041,1.375l3.25,1.208c1.709,0.625 2.417,-2.125 0.75,-2.75l-3.25,-1.167l1.042,1.334c0.304,-4.029 1.5,-7.946 3.5,-11.459c0.102,-0.199 0.155,-0.42 0.155,-0.645c-0,-0.779 -0.642,-1.42 -1.421,-1.42c-0.347,-0 -0.683,0.127 -0.942,0.357c-5.459,5.833 -10.75,11.917 -16.459,17.5c-2.249,2.359 -4.884,4.317 -7.791,5.792c-1.402,0.68 -2.91,1.117 -4.459,1.291c-0.667,0.118 -1.354,0.016 -1.958,-0.291c-0.241,-0.103 -0.455,-0.26 -0.625,-0.459c-0.25,-0.25 -0,0 -0,0c1.25,-1.333 -0.75,-3.333 -2,-2l-0.125,-0.166Zm74.833,-83.542c2.443,4.368 4.186,9.092 5.167,14c0.167,0.618 0.732,1.051 1.372,1.051c0.128,0 0.255,-0.017 0.378,-0.051c0.727,-0.238 1.149,-1.009 0.958,-1.75c-1.046,-5.143 -2.887,-10.091 -5.458,-14.667c-0.27,-0.33 -0.674,-0.523 -1.1,-0.525c-0.777,0.013 -1.41,0.656 -1.41,1.433c0,0.174 0.032,0.347 0.093,0.509Zm-46.375,83.25c-3.597,3.698 -5.157,8.937 -4.166,14c0.166,0.596 0.713,1.01 1.332,1.01c0.127,0 0.254,-0.017 0.376,-0.052c0.614,-0.153 1.049,-0.709 1.049,-1.342c0,-0.124 -0.016,-0.247 -0.049,-0.366c-0.833,-4.058 0.4,-8.279 3.292,-11.25c1.291,-1.333 -0.709,-3.333 -2,-2l0.166,0Zm-7.083,94.042c-3.801,6.919 -1.651,15.702 4.917,20.083c1.541,0.958 2.958,-1.458 1.416,-2.417c-5.191,-3.639 -6.865,-10.66 -3.875,-16.25c0.917,-1.541 -1.541,-2.958 -2.458,-1.416Zm150.5,305.583l4.167,-7.208c0.252,-0.614 0.043,-1.328 -0.5,-1.709c-0.666,-0.37 -1.517,-0.148 -1.917,0.5l-4.167,7.209c-0.12,0.213 -0.183,0.455 -0.183,0.7c0,0.777 0.635,1.42 1.412,1.429c0.508,0.001 0.978,-0.272 1.23,-0.713l-0.042,-0.208Zm117.5,-44.292c-0.844,5.349 1.421,10.737 5.833,13.875c0.667,0.379 1.521,0.154 1.917,-0.5c0.375,-0.678 0.154,-1.542 -0.5,-1.958c-3.36,-2.44 -5.097,-6.557 -4.5,-10.667c0.032,-0.119 0.048,-0.243 0.048,-0.366c-0,-0.783 -0.641,-1.428 -1.423,-1.434c-0.64,0.003 -1.204,0.434 -1.375,1.05Zm-94,-384.833c-0,15.558 0.067,31.1 0.208,46.625l0,11.75c0,3.792 0,7.625 0.292,11.375c0.542,6.517 2.579,12.821 5.958,18.417c3.857,6.169 8.446,11.849 13.667,16.916c0.245,0.188 0.546,0.29 0.854,0.29c0.771,0 1.405,-0.634 1.405,-1.404c-0,-0.009 -0,-0.018 -0.001,-0.027c0.001,-0.293 -0.089,-0.578 -0.258,-0.817c-8.833,-9.042 -17.375,-19.417 -18.708,-32.458c-0.375,-3.625 -0.334,-7.25 -0.375,-10.875l-0,-59.792c-0.121,-0.675 -0.711,-1.172 -1.396,-1.175c-0.684,0.007 -1.273,0.502 -1.396,1.175l-0.25,-0Zm-8.167,-71.708l16.917,-19.959c1.167,-1.416 -0.792,-3.416 -2,-2l-16.917,19.959c-1.166,1.375 0.834,3.375 2,2Zm-38.458,50.458c1.033,3.912 1.3,7.987 0.792,12c-0,0.75 0.708,1.417 1.416,1.417c0.76,-0.027 1.371,-0.657 1.375,-1.417c0.545,-4.266 0.247,-8.598 -0.875,-12.75c-0.22,-0.525 -0.736,-0.868 -1.306,-0.868c-0.777,0 -1.416,0.64 -1.416,1.417c-0,0.067 0.004,0.134 0.014,0.201Z" style="fill:#5b341a;fill-rule:nonzero;"/><path d="M175.45,123.883c2.458,0.525 4.462,2.321 5.25,4.709c0.487,1.187 0.675,2.475 0.542,3.75c-0.1,1.18 -0.534,2.307 -1.25,3.25c-0.522,0.56 -0.522,1.439 -0,2c0.549,0.547 1.45,0.547 2,-0c2.176,-2.759 2.732,-6.475 1.458,-9.75c-1.092,-3.328 -3.842,-5.857 -7.25,-6.667c-0.171,-0.069 -0.353,-0.105 -0.538,-0.105c-0.778,0 -1.42,0.635 -1.429,1.413c0.007,0.7 0.526,1.296 1.217,1.4Zm-18.208,7.584c-0.011,-1.856 0.69,-3.646 1.958,-5c1.336,-1.309 3.44,-1.468 4.958,-0.375c2.084,1.833 0.875,5.125 0,7.75c-1.542,5.96 0.189,12.312 4.542,16.666c-8.672,-3.099 -13.883,-12.103 -12.25,-21.166l0.792,2.125Z" style="fill:#101211;fill-rule:nonzero;"/><path d="M189.325,174.425c-4.983,2.715 -8.1,7.95 -8.113,13.625c0,3.142 0.955,6.208 2.738,8.792c2.658,3.009 6.485,4.735 10.499,4.735c4.714,-0 9.122,-2.379 11.709,-6.319c3.917,-7.333 0,-16.208 -3.875,-23.5l-12.958,2.667Z" style="fill:#f2a16e;fill-rule:nonzero;"/><path d="M320.2,185.258c1.196,8.272 5.413,15.816 11.833,21.167c1.417,1.125 3.417,-0.875 2,-2c-6.06,-5.012 -10.018,-12.125 -11.083,-19.917c-0.226,-0.736 -1.008,-1.165 -1.75,-0.958c-0.72,0.225 -1.156,0.97 -1,1.708Z" style="fill:#5b341a;fill-rule:nonzero;"/><path d="M370.492,497.592c11.507,-10.943 24.262,-20.494 38,-28.459c13.747,-7.969 28.373,-14.317 43.583,-18.916c8.586,-2.616 17.343,-4.634 26.208,-6.042c1.792,-0.292 1,-3.042 -0.75,-2.75c-15.931,2.596 -31.498,7.072 -46.375,13.333c-14.747,6.168 -28.73,14.026 -41.666,23.417c-7.313,5.35 -14.272,11.168 -20.834,17.417c-1.333,1.25 0.667,3.25 2,2l-0.166,-0Zm-75.75,-128.042c11.554,8.833 23.333,17.35 35.333,25.542c10.89,7.84 22.514,14.607 34.708,20.208c6.764,2.933 13.878,4.978 21.167,6.083c0.122,0.034 0.248,0.05 0.375,0.05c0.779,0 1.422,-0.637 1.429,-1.416l0,-0.017c-0,-0.617 -0.417,-1.162 -1.012,-1.325c-12.914,-2.208 -25.272,-6.922 -36.375,-13.875c-11.917,-7 -23.292,-15.042 -34.5,-23.083c-6.647,-4.756 -13.218,-9.617 -19.709,-14.584c-1.416,-1.125 -2.833,1.334 -1.416,2.417Zm-99.375,63.167c3.87,9.961 6.582,20.335 8.083,30.916c0.25,1.792 2.958,1 2.708,-0.75c-1.479,-10.585 -4.192,-20.961 -8.083,-30.916c-0.667,-1.667 -3.375,-0.959 -2.708,0.75Zm-110.25,24.625c-5.725,11.112 -11.417,22.141 -17.084,33.083c-0.833,1.583 1.625,3.042 2.459,1.417c5.554,-11.109 11.25,-22.138 17.083,-33.084c0.833,-1.625 -1.625,-3.041 -2.458,-1.416Z" style="fill:#18404f;fill-rule:nonzero;"/><path d="M301.283,265.55c15.645,9.763 34.886,11.969 52.334,6c4.85,-1.667 9.458,-3.962 13.708,-6.833c1.5,-1.042 0,-3.5 -1.417,-2.459c-14.721,9.813 -33.132,12.421 -50,7.084c-4.725,-1.456 -9.227,-3.559 -13.375,-6.25c-1.5,-1 -2.958,1.458 -1.416,2.458l0.166,0Z" style="fill:#a32b31;fill-rule:nonzero;"/></svg>